<svg width="56" height="56" viewBox="0 0 56 56" fill="none" xmlns="http://www.w3.org/2000/svg">
<path d="M24.3978 0.000954646C23.193 0.0476205 22.3921 0.733609 21.9391 1.22127C20.0548 3.25123 19.2866 6.58318 19.2119 10.4424C18.5021 9.22446 17.5308 7.96682 16.4123 7.64716C16.281 7.61094 16.1465 7.5875 16.0107 7.57716C13.7738 7.25516 11.8825 10.8274 12.1347 16.4717C7.9318 16.621 4.35934 17.097 1.94734 17.6967C1.52238 17.8017 1.21884 17.93 0.966666 18.056C0.791546 18.1376 0.667794 18.2193 0.546377 18.2986C0.168116 18.546 0 18.763 0 18.763C1.09742 18.35 5.5058 17.608 12.2211 17.86L12.2118 17.755H12.2258C12.52 20.7649 13.3979 24.2625 15.1094 28.0425V28.0495L15.0534 27.9468C13.9886 29.6291 10.8692 34.767 9.87681 38.6333C9.23003 41.1556 9.40515 42.7679 9.9095 43.8085C10.5213 45.1852 11.6934 45.6192 12.4312 45.7872C15.1701 46.4125 18.5021 45.3765 21.9298 43.4585C21.1919 44.7115 20.5218 46.2678 20.8183 47.4461C20.851 47.5763 20.8964 47.7029 20.9538 47.8241C21.8014 49.9171 25.8361 49.7654 30.5994 46.7275C32.813 50.2508 34.9938 53.0741 36.7076 54.8474C37.0112 55.1647 37.275 55.3677 37.5132 55.5217C38.16 55.9767 38.6036 56 38.6036 56C37.7 55.2627 34.8724 51.8467 31.7529 45.9598L31.6712 46.0252C31.6712 46.0205 31.6642 46.0135 31.6618 46.0112C34.1462 44.2379 36.766 41.7016 39.2037 38.288H39.2107L39.1453 38.3766L39.1406 38.386C41.2328 38.4653 47.1028 38.5726 50.8854 37.5156C53.3838 36.818 54.6914 35.8683 55.3452 34.914C56.2394 33.6937 56.0293 32.4547 55.8051 31.7291C54.9786 29.0458 52.4241 26.6892 49.0525 24.6779C50.5048 24.6895 52.186 24.4912 53.0546 23.6489C53.1557 23.5503 53.2465 23.4416 53.3254 23.3246C54.696 21.5419 52.5432 18.1283 47.5371 15.5314C49.4844 11.8541 50.8457 8.55714 51.5299 6.18885C51.6466 5.77119 51.6863 5.44453 51.7003 5.1622C51.775 4.37121 51.5742 3.97455 51.5742 3.97455C51.3874 5.12487 49.8394 9.27346 46.2972 14.9177L46.393 14.9644L46.3883 14.9714C43.6097 13.7114 40.1003 12.7127 35.9231 12.3114L35.9184 12.3044L36.0352 12.3137C35.0592 10.4634 32.2222 5.33253 29.4179 2.58858C27.5687 0.780275 26.0883 0.119953 24.9349 0.0289542C24.7568 0.00616879 24.5773 -0.00319083 24.3978 0.000954646ZM27.1344 6.16785C28.2108 6.18652 29.3199 7.01717 30.2352 7.88982C31.3816 8.98647 32.8293 11.0958 33.5321 12.1597C33.3383 12.1527 33.1562 12.1271 32.9577 12.1224C28.6077 12.0127 25.4485 12.9764 23.1626 14.409C23.3027 10.8088 24.141 7.87582 26.0533 6.53651C26.3695 6.31004 26.7456 6.1818 27.1344 6.16785ZM17.5261 10.9908C17.5961 10.9908 17.6662 11.0071 17.7362 11.0188C18.334 11.1821 18.836 11.8074 19.2353 12.5167C19.289 13.8304 19.4104 15.186 19.5855 16.5603C18.0399 16.4694 16.4919 16.4227 14.9436 16.4203C15.0394 13.2074 15.943 11.0304 17.5261 10.9908ZM30.3169 13.8141C30.8866 13.7977 31.4704 13.8071 32.0728 13.8444C36.9575 14.136 41.5176 15.5174 44.7982 17.2113C44.0277 18.3453 43.1731 19.5283 42.2531 20.7439C40.8498 18.2006 38.8278 16.684 37.8915 16.2873C37.0766 15.9373 36.9061 15.9607 36.9061 15.9607C36.9061 15.9607 36.9832 15.9373 38.237 16.9243C39.589 17.986 40.6794 19.505 41.4499 21.1359C37.3469 19.6298 33.1255 18.4677 28.8295 17.6617C27.3991 17.3974 25.9609 17.1772 24.5169 17.0013C24.5122 17.027 24.5122 17.0783 24.5076 17.1063L24.4492 17.097C24.4118 17.356 24.3651 17.7433 24.3324 18.1703C24.2997 18.637 24.2857 19.0056 24.2787 19.225C24.6453 19.295 25.0166 19.3603 25.3878 19.435C30.6998 20.4849 37.5856 22.6572 42.58 25.4922C42.6594 28.0658 41.8212 31.1318 39.8014 34.186C37.1069 38.2693 33.6278 41.5289 30.5177 43.5192C29.8863 42.2089 29.2891 40.8823 28.7268 39.5409C31.6828 39.6273 34.0551 38.6193 34.877 38.001C35.5775 37.4783 35.6476 37.315 35.6476 37.308C35.6452 37.3173 35.5775 37.4106 34.1532 37.9776C32.5281 38.6263 30.6274 38.8083 28.7992 38.6426C32.152 35.8483 35.2667 32.7803 38.1109 29.4705C39.0636 28.3551 39.9719 27.2142 40.8382 26.0638L40.7564 26.0055L40.7938 25.9612C40.2332 25.5214 39.6451 25.1177 39.0332 24.7525L38.2977 25.6065C34.7439 29.6664 29.439 34.5174 24.4982 37.427C22.2473 36.202 20.0315 33.9504 18.404 30.7071C16.2185 26.3345 15.1351 21.6936 14.9623 18.0093C16.3002 18.1073 17.7246 18.2566 19.2026 18.441C17.6989 20.9283 17.393 23.4436 17.5167 24.4515C17.6218 25.3195 17.7269 25.4549 17.7316 25.4595C17.7269 25.4549 17.6802 25.3522 17.8997 23.8332C18.1448 22.1346 18.9084 20.4266 19.9381 18.9473C20.6853 23.2486 21.7897 27.4803 23.2397 31.5984C23.73 32.9821 24.2601 34.3354 24.8228 35.6583L24.9138 35.6233L24.9395 35.677C25.1847 35.579 25.5419 35.4273 25.9249 35.2407C26.3475 35.0354 26.6721 34.8627 26.8659 34.7554C26.7398 34.4054 26.6137 34.0484 26.4923 33.689C24.7457 28.5698 23.1907 21.5279 23.1486 15.7904C24.9792 14.6564 27.4286 13.9051 30.3169 13.8164V13.8141ZM46.1782 17.986C48.9147 19.6753 50.353 21.5466 49.5989 22.9349C49.1739 23.5509 48.1862 23.6885 47.2055 23.6512C46.0577 23.0592 44.8862 22.5143 43.6938 22.0179C44.5881 20.6599 45.417 19.3066 46.1782 17.986ZM43.7662 26.1945C46.8179 28.1148 48.9381 30.3011 49.1435 32.6274C49.1827 33.0185 49.1047 33.4124 48.9194 33.759C48.8455 33.8868 48.7595 34.0071 48.6625 34.1184C48.0251 34.8254 46.9277 35.2617 45.884 35.5673C44.3592 36.0107 41.8072 36.2137 40.5323 36.2907C40.6373 36.1273 40.7424 35.9827 40.8475 35.8147C43.1194 32.1047 43.8666 28.8895 43.7662 26.1945ZM16.1625 30.1844C16.2699 30.3898 16.3586 30.5881 16.473 30.7934C18.5348 34.5874 20.9258 36.8367 23.2934 38.1036C20.0852 39.7999 17.1128 40.5559 14.9857 39.5666C14.7392 39.4544 14.5182 39.293 14.3363 39.0924C14.1544 38.8918 14.0155 38.6561 13.9279 38.4C13.6407 37.4947 13.8065 36.328 14.0634 35.2733C14.451 33.6867 15.6091 31.2834 16.1625 30.1844ZM26.9032 40.1546C27.634 41.6129 28.3906 43.0082 29.1541 44.3289C26.3241 45.8502 23.9892 46.1605 23.1626 44.8119C23.1229 44.7489 23.1019 44.6742 23.0762 44.6065C22.9011 43.9532 23.263 43.1296 23.737 42.3782C24.7948 41.7016 25.8548 40.9526 26.9009 40.1546H26.9032Z" fill="#448FFF"/>
</svg>
