<svg width="48" height="56" viewBox="0 0 48 56" fill="none" xmlns="http://www.w3.org/2000/svg">
<path d="M4.35634 0.0023333C1.17214 0.0023333 0.000110056 1.18298 0.000110056 4.38661V43.0284C-0.00147282 43.3658 0.0140195 43.703 0.046527 44.0387C0.118473 44.7387 0.132399 45.4154 0.779915 46.1854C0.842578 46.2624 1.5017 46.757 1.5017 46.757C1.85679 46.932 2.10048 47.0604 2.49966 47.2237L21.8439 55.3693C22.8489 55.8336 23.2689 56.0132 23.9977 55.9992H24.0023C24.7311 56.0132 25.1511 55.8336 26.1561 55.3693L45.5003 47.2214C45.8995 47.058 46.1432 46.932 46.4983 46.7547C46.4983 46.7547 47.1574 46.2624 47.2201 46.1877C47.8699 45.4177 47.8815 44.7387 47.9535 44.0411C47.9861 43.7045 48.0015 43.3665 47.9999 43.0284V4.38661C47.9999 1.18298 46.8255 0 43.6413 0L4.35634 0.0023333ZM35.3768 7.2589H36.955C39.5961 7.2589 40.8726 8.54922 40.8726 11.2162V15.6028H37.6837V11.4028C37.6837 10.5419 37.2892 10.1429 36.4699 10.1429H35.9245C35.0728 10.1429 34.6782 10.5395 34.6782 11.4005V24.957C34.6782 25.818 35.0728 26.217 35.9245 26.217H36.5326C37.3518 26.217 37.7464 25.818 37.7464 24.957V20.1131H40.9329V25.1133C40.9329 27.7826 39.6286 29.1033 36.9875 29.1033H35.3768C32.7357 29.1033 31.4314 27.7826 31.4314 25.1133V11.2488C31.4314 8.57955 32.7357 7.26124 35.3768 7.26124V7.2589ZM7.09494 7.44557H14.3221V10.4182H10.3441V16.4918H14.1689V19.4667H10.3441V25.9393H14.3824V28.9143H7.09494V7.44557ZM15.9513 7.44557H21.0525C23.6936 7.44557 24.998 8.76155 24.998 11.4308V17.1358C24.998 19.8051 23.6936 21.1257 21.0525 21.1257H19.1982V28.9143H15.949L15.9513 7.44557ZM26.4647 7.44557H29.7139V28.9143H26.4647V7.44557ZM19.2005 10.3272V18.2418H20.535C21.3566 18.2418 21.7488 17.8428 21.7488 16.9818V11.5872C21.7488 10.7285 21.3542 10.3272 20.535 10.3272H19.2005ZM10.5205 34.0032C10.9889 34.0051 11.4533 34.0904 11.8921 34.2552C12.3069 34.423 12.6912 34.6588 13.0293 34.9529L11.9803 36.2268C11.7655 36.0408 11.5247 35.8875 11.2655 35.7719C10.9984 35.6616 10.7117 35.6076 10.423 35.6132C10.1988 35.6113 9.97696 35.6591 9.7732 35.7532C9.57653 35.844 9.39981 35.9733 9.25333 36.1335C9.10287 36.2993 8.98407 36.4915 8.90288 36.7005C8.81552 36.9225 8.7714 37.1594 8.77291 37.3982V37.4168C8.77114 37.664 8.81521 37.9093 8.90288 38.1401C8.98317 38.3543 9.10731 38.549 9.26725 38.7118C9.42525 38.8715 9.61293 38.9983 9.81962 39.0851C10.0426 39.1772 10.2818 39.2233 10.5228 39.2205C10.8862 39.2352 11.2457 39.141 11.5556 38.9498V38.1588H10.2838V36.8405H13.2522V39.7688C12.885 40.0678 12.475 40.3094 12.036 40.4851C11.5313 40.6839 10.9928 40.7814 10.4509 40.7721C9.97373 40.7776 9.4998 40.6929 9.05374 40.5224C8.64219 40.3639 8.26536 40.1261 7.94437 39.8225C7.62893 39.5229 7.37777 39.1616 7.20634 38.7608C7.02509 38.3332 6.9342 37.8723 6.93945 37.4075V37.3888C6.93514 36.9321 7.02441 36.4794 7.2017 36.0588C7.37191 35.6574 7.61781 35.293 7.9258 34.9855C8.2406 34.6733 8.61474 34.4281 9.02589 34.2645C9.46746 34.0887 9.93881 34.0007 10.4138 34.0055C10.4486 34.0051 10.4834 34.0051 10.5182 34.0055L10.5205 34.0032ZM38.2848 34.0219C38.7667 34.0206 39.2459 34.0946 39.7052 34.2412C40.1329 34.3836 40.5316 34.6025 40.8818 34.8875L39.986 36.1615C39.7083 35.9599 39.4035 35.7988 39.0809 35.6832C38.792 35.5783 38.4875 35.5231 38.1804 35.5199C38.0108 35.5081 37.8418 35.5505 37.6976 35.6412C37.6484 35.6734 37.6079 35.7172 37.5795 35.7689C37.5512 35.8206 37.536 35.8785 37.5352 35.9375V35.9562C37.5337 36.025 37.5513 36.0929 37.5862 36.1522C37.6309 36.2179 37.6916 36.271 37.7626 36.3062C37.8716 36.3637 37.9859 36.4106 38.1038 36.4462C38.2477 36.4928 38.4287 36.5395 38.6515 36.5885C38.99 36.6612 39.3234 36.7563 39.6495 36.8732C39.9208 36.968 40.1772 37.1016 40.4107 37.2698C40.6126 37.4157 40.7772 37.6076 40.8911 37.8298C41.0069 38.0752 41.0633 38.3446 41.0559 38.6161V38.6348C41.0616 38.9424 40.9973 39.2473 40.8679 39.5261C40.7428 39.7852 40.5611 40.0125 40.3364 40.1911C40.0929 40.383 39.8147 40.5256 39.5172 40.6111C39.1701 40.7103 38.8104 40.7582 38.4496 40.7534C37.8891 40.7565 37.3321 40.665 36.8018 40.4828C36.2937 40.3095 35.8256 40.0349 35.4255 39.6755L36.4235 38.4761C37.0664 38.9965 37.7649 39.2578 38.5123 39.2578C38.7019 39.2689 38.8911 39.2286 39.06 39.1411C39.119 39.1089 39.168 39.0609 39.2016 39.0024C39.2352 38.944 39.252 38.8773 39.2503 38.8098V38.7911C39.2512 38.7281 39.2351 38.6661 39.2039 38.6115C39.1607 38.547 39.1026 38.4941 39.0345 38.4575C38.9291 38.3978 38.8179 38.3494 38.7026 38.3128C38.5248 38.2557 38.3443 38.2074 38.1618 38.1682C37.8387 38.094 37.5189 38.006 37.2033 37.9045C36.9305 37.8185 36.6716 37.6927 36.4351 37.5312C36.2221 37.3847 36.0458 37.1906 35.9199 36.9642C35.7859 36.7052 35.7204 36.4159 35.7296 36.1242V36.1055C35.7265 35.8172 35.7851 35.5315 35.9013 35.2679C36.0152 35.0129 36.185 34.7872 36.398 34.6075C36.6308 34.4137 36.8987 34.2671 37.1871 34.1759C37.5232 34.0691 37.8743 34.0171 38.2268 34.0219C38.2461 34.0218 38.2655 34.0218 38.2848 34.0219ZM16.5663 34.0802H18.2884L21.034 40.6368H19.1193L18.6481 39.4725H16.1602L15.7006 40.6344H13.8208L16.5663 34.0802ZM21.6652 34.1269H23.5544L25.0931 36.6468L26.6318 34.1269H28.521V40.6368H26.7432V36.8988L25.0931 39.4445H25.056L23.4151 36.9175V40.6344H21.6652V34.1269ZM29.7162 34.1269H34.9033V35.6622H31.4847V36.6468H34.5807V38.0702H31.4847V39.1015H34.9498V40.6368H29.7162V34.1269ZM17.4158 36.2198L16.6847 38.0702H18.1329L17.4158 36.2198ZM14.7584 48.3297H33.3577L23.8654 51.475L14.7584 48.3297Z" fill="url(#paint0_linear_485_138)"/>
<defs>
<linearGradient id="paint0_linear_485_138" x1="24" y1="0" x2="24" y2="56" gradientUnits="userSpaceOnUse">
<stop stop-color="white"/>
<stop offset="1" stop-color="white" stop-opacity="0.53"/>
</linearGradient>
</defs>
</svg>
