<svg width="150" height="24" viewBox="0 0 150 24" fill="none" xmlns="http://www.w3.org/2000/svg">
<path d="M0 0C3.40724 6.17801 9.39367 8.01025 16.6968 8.14915C21.0068 8.23514 29.0362 7.8978 29.0362 10.1004C29.0362 11.7607 24.2308 16.0601 24.2308 17.1185C24.2308 17.1185 28.5882 13.6061 31.0385 11.5292C33.4819 9.44558 34.8462 8.20868 34.8462 6.97835C34.8462 4.47805 24.7059 4.94108 16.5204 4.94108C8.32128 4.94108 3.84842 3.44618 0 0ZM8.70814 18.4216C7.10633 18.4216 5.80318 19.6651 5.80318 21.1931C5.80318 22.7276 7.09956 23.9645 8.70814 23.9645C10.3168 23.9645 11.6131 22.721 11.6131 21.1931C11.6131 19.6585 10.3168 18.4216 8.70814 18.4216ZM20.3213 18.4216C18.7195 18.4216 17.4163 19.6651 17.4163 21.1931C17.4163 22.7276 18.7127 23.9645 20.3213 23.9645C21.9231 23.9645 23.2262 22.721 23.2262 21.1931C23.2262 19.6585 21.9299 18.4216 20.3213 18.4216Z" fill="#00BA78"/>
<path d="M63.3462 19.2814H59.9052L59.9866 8.43354L55.3372 19.2814H52.0386L47.3485 8.43354C47.4028 15.3061 47.43 18.9176 47.43 19.2814H43.9819V5.1858H49.2286L53.7149 15.531L58.1606 5.1858H63.3462V19.2814ZM82.9276 19.2814H78.869L77.6404 16.6224H70.2219L68.9933 19.2814H65.0362L72.0272 5.1792H75.9434L82.9276 19.2814ZM76.4729 14.1287L73.9548 8.61875L71.3961 14.1287H76.4729ZM100.432 19.2814H96.1495L92.2942 13.6061H88.1539V19.2814H84.5499V5.1858H94.5067C95.5318 5.1858 96.3328 5.27179 96.9028 5.44377C97.8191 5.70834 98.5318 6.20444 99.0339 6.91882C99.5362 7.62657 99.7942 8.44677 99.7942 9.39267C99.7942 10.074 99.6652 10.6891 99.4072 11.2514C99.1086 11.9194 98.6743 12.4023 98.1177 12.7066C97.568 13.0108 96.8757 13.2423 96.0272 13.3879L100.432 19.2814ZM88.1539 7.65965V11.1125H94.12C95.4571 11.1125 96.129 10.5502 96.129 9.43235C96.129 8.24834 95.4095 7.65303 93.9775 7.65303H88.1539V7.65965ZM119.192 19.2814H114.333L108.679 13.2093L106.487 15.0481V19.2814H102.882V5.1858H106.487V11.3572L113.539 5.1858H118.208L111.156 11.1389L119.192 19.2814ZM134.288 19.2814H120.394V5.1858H133.88V7.71919H124.025V10.8942H133.554V13.4077H124.025V16.7613H134.294V19.2814H134.288ZM149.654 7.75887H144.306V19.2814H140.661V7.75887H135.292V5.1792H149.661V7.75887H149.654Z" fill="#00BA78"/>
<path d="M43.5677 5.67527C43.4592 5.57605 43.3844 5.43715 43.3369 5.29825C43.1877 4.82861 43.3234 4.31929 43.5677 3.88934C43.6696 3.70413 43.8053 3.53215 43.9886 3.42633C44.1719 3.32048 44.3958 3.29403 44.613 3.2808C44.932 3.26095 45.251 3.26757 45.5631 3.32048C45.9162 3.38662 46.2487 3.51892 46.5949 3.59831C47.2125 3.74381 47.8573 3.71736 48.4953 3.6909C48.8144 3.67767 49.1401 3.66445 49.4387 3.77027C49.9749 3.9687 50.3144 4.58387 50.1786 5.13287C50.1448 5.26517 50.0835 5.39747 49.9682 5.48346C49.8935 5.53637 49.7986 5.56945 49.7102 5.58927C48.6786 5.82079 47.6401 5.16595 46.5882 5.25194C45.9977 5.29825 45.4682 5.58267 44.932 5.80757C44.545 5.96632 43.88 5.96632 43.5677 5.67527Z" fill="white"/>
<path d="M72.373 5.56288C72.312 5.56288 72.2509 5.5695 72.1967 5.53642C72.1424 5.50997 72.1082 5.46366 72.0811 5.41075C71.9115 5.13955 71.7892 4.82867 71.7962 4.51116C71.8029 4.19368 71.9591 3.86954 72.2305 3.69758C72.5087 3.5256 72.8686 3.5322 73.1943 3.59837C73.5201 3.6645 73.8391 3.77695 74.1716 3.7968C74.6605 3.82986 75.1762 3.6645 75.631 3.83648C75.95 3.96216 76.1943 4.25981 76.2349 4.59055C76.2758 4.92126 76.1062 5.27845 75.8143 5.45043C75.631 5.55628 75.4071 5.59596 75.2168 5.68855C74.9996 5.79439 74.7758 5.99943 74.511 5.92667C74.3414 5.88038 74.2871 5.72823 74.1581 5.62901C73.9272 5.45706 73.6286 5.50334 73.3572 5.51657C73.0247 5.53642 72.6987 5.54965 72.373 5.56288Z" fill="white"/>
<path d="M71.5925 14.4925C71.4363 14.4131 71.2734 14.2808 71.2734 14.1023C71.2734 13.97 71.3683 13.8509 71.4836 13.7914C71.5992 13.7318 71.7416 13.7186 71.8774 13.7186C72.4611 13.7384 73.0379 14.0559 73.6082 13.9236C73.9678 13.8443 74.2597 13.5929 74.6126 13.4805C75.1149 13.3217 75.6511 13.4739 76.1535 13.6194C76.2688 13.6524 76.3841 13.6855 76.4792 13.7583C76.5744 13.8244 76.6488 13.9369 76.6421 14.0493C76.6354 14.1684 76.5335 14.2742 76.4182 14.3205C76.3026 14.3668 76.1739 14.3735 76.0516 14.3735C75.7869 14.3735 75.5017 14.347 75.2574 14.4462C75.0878 14.519 74.9454 14.6513 74.7825 14.724C74.5379 14.8365 74.2463 14.8166 73.9815 14.7637C73.7168 14.7108 73.4588 14.6182 73.1873 14.5917C72.6307 14.5388 72.1287 14.7571 71.5925 14.4925Z" fill="white"/>
<path d="M84.5021 5.73488C84.1898 5.46368 84.1083 5.02049 84.1492 4.61699C84.2373 3.79019 84.8007 3.03613 85.5812 2.69878C86.362 2.36144 87.3188 2.46727 87.9977 2.96337C88.2692 3.15518 88.493 3.40655 88.7849 3.5719C89.4705 3.96878 90.3325 3.83648 91.1197 3.72403C92.0768 3.58513 93.0745 3.48591 93.9977 3.76374C94.4116 3.88279 94.7986 4.07462 95.2058 4.19367C95.8097 4.35905 96.4411 4.36565 97.0654 4.40533C97.6898 4.44504 98.3348 4.531 98.871 4.84191C99.4072 5.15279 99.8211 5.74148 99.7464 6.34341C99.726 6.52199 99.6582 6.69398 99.5429 6.83288C99.3121 7.1107 98.9253 7.19669 98.5587 7.21652C97.3302 7.28269 96.1696 6.72043 94.9545 6.49554C94.0316 6.32356 93.0678 6.35664 92.1582 6.58153C91.8529 6.65429 91.561 6.75351 91.2487 6.80642C89.735 7.06439 88.2487 6.23757 86.7149 6.19789C86.3077 6.18466 85.9817 6.14498 85.5949 6.05899C85.2079 5.96637 84.8278 6.0193 84.5021 5.73488Z" fill="white"/>
<path d="M96.0408 9.52495C95.7691 9.67047 95.8642 10.1004 95.6675 10.3385C95.5385 10.4973 95.3009 10.5304 95.0905 10.5171C94.6561 10.4907 94.2148 10.3187 93.8009 10.4378C93.5837 10.5039 93.4004 10.6362 93.19 10.7156C92.9795 10.795 92.749 10.8082 92.5318 10.7619C92.2872 10.709 92.07 10.5833 91.8327 10.5105C91.5543 10.4245 91.2557 10.4245 90.9638 10.4179C90.387 10.4113 89.8032 10.4047 89.2262 10.3981C89.1243 10.3981 89.0157 10.3981 88.9209 10.4378C88.7781 10.5039 88.6833 10.656 88.5271 10.6957C88.4524 10.7156 88.378 10.6957 88.3032 10.709C88.1404 10.7288 87.9976 10.8809 88.0046 11.0463C88.0046 11.2447 88.1947 11.4101 88.3914 11.463C88.5951 11.5093 88.8053 11.4763 89.009 11.4432C89.8642 11.3043 90.767 11.2381 91.5951 11.4895C92.0157 11.6152 92.4162 11.8268 92.8575 11.8533C93.5633 11.8996 94.2218 11.4829 94.9343 11.4233C95.3348 11.3903 95.7489 11.4696 96.1223 11.3175C96.5566 11.1389 96.767 10.6627 96.7872 10.2261C96.7942 9.91522 96.4209 9.31991 96.0408 9.52495Z" fill="white"/>
<path d="M102.916 6.12511C102.638 6.03912 102.407 5.8076 102.366 5.52317C102.325 5.22552 102.502 4.92786 102.739 4.74266C103.052 4.49791 103.486 4.39869 103.88 4.48468C104.063 4.52439 104.233 4.59713 104.409 4.65006C104.748 4.74266 105.102 4.73606 105.454 4.70297C105.807 4.66989 106.181 4.62361 106.486 4.79557C106.717 4.92787 106.873 5.18584 106.866 5.45041C106.859 5.71501 106.703 5.96636 106.466 6.09203C106.343 6.15816 106.201 6.18465 106.065 6.2177C105.583 6.32355 104.891 6.64766 104.457 6.34337C104.246 6.19787 104.07 6.15157 103.805 6.15816C103.724 6.15816 102.916 6.2177 102.916 6.12511Z" fill="white"/>
<path d="M113.334 6.10524C112.88 6.01925 112.425 5.69514 112.398 5.25195C112.391 5.13288 112.412 5.01384 112.445 4.90136C112.493 4.74924 112.568 4.59711 112.676 4.47804C112.914 4.23332 113.287 4.16055 113.633 4.19361C113.98 4.22009 114.305 4.33914 114.644 4.40527C115.181 4.51112 115.744 4.49126 116.267 4.35236C116.518 4.28623 116.762 4.19361 117.02 4.1407C117.278 4.09439 117.556 4.09439 117.787 4.20684C118.093 4.35899 118.276 4.70955 118.242 5.04029C118.208 5.371 117.963 5.67528 117.651 5.80095C117.407 5.90017 117.135 5.9068 116.891 5.99279C116.579 6.09861 116.307 6.27059 115.961 6.27722C115.751 6.28382 115.574 6.20445 115.378 6.15152C114.706 5.96631 114.013 6.23091 113.334 6.10524Z" fill="white"/>
<path d="M122.831 6.15155C122.362 6.27063 121.86 6.24417 121.412 6.06556C121.059 5.92666 120.713 5.64886 120.665 5.27844C120.631 5.01384 120.767 4.74267 120.971 4.56406C121.174 4.38548 121.446 4.28626 121.717 4.23333C122.396 4.10105 123.102 4.25318 123.787 4.22673C124.208 4.20687 124.629 4.12088 125.05 4.10105C125.525 4.0746 126 4.12751 126.468 4.06137C127.154 3.96215 127.805 3.60496 128.498 3.63802C129.075 3.6711 129.611 3.97538 130.188 4.02166C130.588 4.05474 130.989 3.96215 131.382 4.03489C131.573 4.06797 131.756 4.14073 131.946 4.18704C132.353 4.28626 132.781 4.25981 133.195 4.32594C133.609 4.39208 134.043 4.59714 134.192 4.98079C134.382 5.45703 134.023 6.00605 133.541 6.21109C133.066 6.41615 132.509 6.35662 132 6.2574C131.491 6.15155 130.975 6.01265 130.453 6.05233C130.039 6.08542 129.645 6.24417 129.231 6.28385C128.593 6.34339 127.968 6.13833 127.331 6.06556C126.509 5.97297 125.674 6.1185 124.853 5.99943C124.554 5.95312 124.263 5.80099 123.964 5.82744C123.584 5.84067 123.217 6.05233 122.831 6.15155Z" fill="white"/>
<path d="M123.882 10.4973C123.95 10.1203 124.398 9.82925 124.757 9.98137C124.968 10.0674 125.11 10.279 125.321 10.3782C125.701 10.5569 126.156 10.3253 126.563 10.418C126.814 10.4709 127.045 10.6494 127.303 10.6494C127.486 10.6494 127.656 10.5635 127.825 10.4907C128.266 10.3055 128.755 10.2261 129.23 10.2724C129.563 10.2989 129.896 10.3915 130.235 10.3584C130.459 10.3386 130.676 10.2724 130.893 10.2063C131.402 10.0608 131.932 9.94169 132.461 10.0078C132.991 10.074 133.513 10.3452 133.751 10.8016C133.873 11.0265 133.9 11.3307 133.73 11.5226C133.615 11.6483 133.425 11.6946 133.248 11.6946C133.072 11.6879 132.902 11.6416 132.733 11.6086C132.373 11.5424 132.006 11.5358 131.64 11.5358C131.355 11.5358 131.063 11.5292 130.778 11.5755C130.391 11.635 130.025 11.7806 129.637 11.8401C128.796 11.979 127.941 11.721 127.092 11.7342C126.733 11.7408 126.373 11.7938 126.02 11.8004C125.545 11.8136 124.914 11.7938 124.473 11.5821C124.092 11.4101 123.807 10.8876 123.882 10.4973Z" fill="white"/>
<path d="M135.536 5.84071C135.244 5.6026 134.986 5.21895 135.142 4.88821C135.278 4.60379 135.651 4.52442 135.97 4.53102C136.54 4.55088 137.09 4.76254 137.653 4.86836C139.235 5.16601 140.85 4.60379 142.466 4.6501C142.866 4.66332 143.28 4.7096 143.667 4.59056C144.115 4.45826 144.461 4.12755 144.848 3.86958C145.486 3.44625 146.267 3.2081 147.033 3.2875C147.773 3.36686 148.459 3.73728 149.029 4.21351C149.24 4.3855 149.436 4.58393 149.545 4.82868C149.653 5.07342 149.653 5.37768 149.491 5.59597C149.28 5.86717 148.88 5.90685 148.527 5.91348C147.19 5.9267 145.819 5.75472 144.536 6.10529C143.878 6.2839 143.267 6.58815 142.608 6.76676C142.092 6.89903 141.556 6.95197 141.027 6.91889C140.511 6.8858 139.995 6.76676 139.486 6.68737C138.679 6.5617 137.891 6.62123 137.083 6.5617C136.527 6.51539 135.95 6.17805 135.536 5.84071Z" fill="white"/>
<path d="M72.7397 7.50094C73.0394 7.50094 73.2826 7.26405 73.2826 6.9718C73.2826 6.67955 73.0394 6.44263 72.7397 6.44263C72.4397 6.44263 72.1965 6.67955 72.1965 6.9718C72.1965 7.26405 72.4397 7.50094 72.7397 7.50094Z" fill="white"/>
<path d="M90.1627 7.71263C90.5824 7.71263 90.923 7.38094 90.923 6.97179C90.923 6.56265 90.5824 6.23096 90.1627 6.23096C89.7429 6.23096 89.4026 6.56265 89.4026 6.97179C89.4026 7.38094 89.7429 7.71263 90.1627 7.71263Z" fill="white"/>
<path d="M94.2216 9.5514C94.4542 9.5514 94.6425 9.3678 94.6425 9.1413C94.6425 8.91483 94.4542 8.7312 94.2216 8.7312C93.9894 8.7312 93.801 8.91483 93.801 9.1413C93.801 9.3678 93.9894 9.5514 94.2216 9.5514Z" fill="white"/>
<path d="M90.1625 10.3188C90.3648 10.3188 90.5288 10.1588 90.5288 9.96156C90.5288 9.7643 90.3648 9.60437 90.1625 9.60437C89.9599 9.60437 89.7959 9.7643 89.7959 9.96156C89.7959 10.1588 89.9599 10.3188 90.1625 10.3188Z" fill="white"/>
<path d="M113.477 8.73123C113.68 8.73123 113.844 8.5713 113.844 8.37404C113.844 8.17677 113.68 8.01685 113.477 8.01685C113.275 8.01685 113.111 8.17677 113.111 8.37404C113.111 8.5713 113.275 8.73123 113.477 8.73123Z" fill="white"/>
<path d="M114.753 11.2647C114.956 11.2647 115.12 11.1047 115.12 10.9075C115.12 10.7102 114.956 10.5503 114.753 10.5503C114.551 10.5503 114.387 10.7102 114.387 10.9075C114.387 11.1047 114.551 11.2647 114.753 11.2647Z" fill="white"/>
<path d="M132.489 7.85149C132.785 7.85149 133.025 7.61754 133.025 7.32894C133.025 7.04034 132.785 6.8064 132.489 6.8064C132.193 6.8064 131.952 7.04034 131.952 7.32894C131.952 7.61754 132.193 7.85149 132.489 7.85149Z" fill="white"/>
<path d="M130.805 9.09504C130.993 9.09504 131.144 8.94698 131.144 8.76433C131.144 8.58166 130.993 8.43359 130.805 8.43359C130.618 8.43359 130.466 8.58166 130.466 8.76433C130.466 8.94698 130.618 9.09504 130.805 9.09504Z" fill="white"/>
<path d="M75.2846 9.55814C75.427 9.55814 75.5426 9.44558 75.5426 9.30677C75.5426 9.16795 75.427 9.05542 75.2846 9.05542C75.1422 9.05542 75.0269 9.16795 75.0269 9.30677C75.0269 9.44558 75.1422 9.55814 75.2846 9.55814Z" fill="white"/>
<path d="M76.0109 11.9261C76.2135 11.9261 76.3775 11.7661 76.3775 11.5689C76.3775 11.3716 76.2135 11.2117 76.0109 11.2117C75.8085 11.2117 75.6445 11.3716 75.6445 11.5689C75.6445 11.7661 75.8085 11.9261 76.0109 11.9261Z" fill="white"/>
<path d="M72.1965 13.077C72.4364 13.077 72.6309 12.8875 72.6309 12.6537C72.6309 12.4199 72.4364 12.2303 72.1965 12.2303C71.9567 12.2303 71.7622 12.4199 71.7622 12.6537C71.7622 12.8875 71.9567 13.077 72.1965 13.077Z" fill="white"/>
<path d="M57.3868 4.37882C57.3868 4.37882 59.8369 1.20383 65.0359 1.79253C67.493 2.24232 68.4703 4.75584 68.4703 4.75584C68.4703 4.75584 69.2645 7.05771 69.1287 9.69692C69.0607 10.7354 69.0607 13.163 69.0607 13.163C69.0607 13.163 69.1287 13.9898 68.4431 14.0229C67.751 14.0559 67.6083 13.3151 67.6083 13.3151C67.6083 13.3151 67.0788 10.3121 66.7735 9.79614C66.4749 9.28022 66.2983 8.3145 66.2983 8.3145C66.2983 8.3145 65.7649 9.40906 65.6536 10.0343C64.9612 9.16115 57.3325 5.88032 57.3868 4.37882Z" fill="#ED1414"/>
<path opacity="0.19" d="M59.1243 5.18578C59.1243 5.18578 58.819 2.34814 64.2557 1.85205C62.3076 1.85205 60.3938 2.33491 60.3938 2.33491L58.2353 3.55861L57.4209 4.37881L59.1243 5.18578Z" fill="#F3EDED"/>
<path d="M57.3868 4.37882C57.3868 4.37882 59.8369 1.20383 65.0359 1.79253C67.493 2.24232 68.4703 4.75584 68.4703 4.75584C68.4703 4.75584 69.2645 7.05771 69.1287 9.69692C69.0607 10.7354 69.0607 13.163 69.0607 13.163C69.0607 13.163 69.1287 13.9898 68.4431 14.0229C67.751 14.0559 67.6083 13.3151 67.6083 13.3151C67.6083 13.3151 67.0788 10.3121 66.7735 9.79614C66.4749 9.28022 66.2983 8.31449 66.2983 8.31449C66.2983 8.31449 65.7649 9.40906 65.6536 10.0343C64.9612 9.16115 57.3325 5.88032 57.3868 4.37882Z" stroke="#5C0F0E" stroke-width="1.5" stroke-miterlimit="10"/>
<path d="M64.8734 11.5359C64.6428 11.5623 64.3985 11.4763 64.1337 11.3771C63.2581 11.0332 62.4166 10.5768 61.6019 10.1137C61.2557 9.91529 60.9028 9.71026 60.5771 9.47214C59.749 8.88343 58.9277 8.29475 58.059 7.75895C57.7808 7.58699 57.5024 7.41501 57.2038 7.27608C56.8643 7.11736 56.4708 7.04459 56.1448 6.85276C55.8666 6.694 55.6495 6.38975 55.568 6.08546C55.4866 5.78781 55.5613 5.50338 55.7376 5.25204C55.8871 5.03375 56.0905 4.83531 56.308 4.67658C56.6947 4.39216 57.1699 4.28631 57.6247 4.46489C58.8666 4.94776 61.5409 6.50219 61.7309 6.62126C61.9209 6.74031 64.1609 8.3278 64.8804 8.98265C65.3757 9.43243 65.8713 10.0145 65.6404 10.7024C65.5794 10.881 65.5047 11.0596 65.3894 11.2118C65.2333 11.4234 65.0567 11.516 64.8734 11.5359Z" fill="white"/>
<path d="M68.4434 14.0427C68.2805 14.0625 68.1244 14.1154 67.9752 14.1948C67.7443 14.3139 67.5543 14.4858 67.4323 14.7107C67.3576 14.843 67.3167 14.9952 67.2966 15.1407C67.249 15.5243 67.3982 15.8815 67.6833 16.1461C67.9615 16.4041 68.301 16.543 68.6877 16.5761C69.2648 16.6224 69.862 16.4305 69.9843 15.8154C70.0386 15.5376 70.0453 15.2399 69.9706 14.9621C69.9095 14.7306 69.7805 14.5189 69.5972 14.3602C69.3123 14.1154 68.8914 14.0096 68.5181 14.0361C68.491 14.0361 68.4638 14.0361 68.4434 14.0427Z" fill="#F3EDED" stroke="#5A0E0B" stroke-width="1.5" stroke-miterlimit="10"/>
<path opacity="0.09" d="M67.0178 6.31037C66.9636 6.38976 66.9364 6.48235 66.9093 6.57497C66.7735 7.00492 66.5631 7.41502 66.2916 7.78544C66.2645 7.66637 66.2239 7.54069 66.1763 7.42825C66.1355 7.3224 66.0677 7.20996 65.9524 7.1901C65.8234 7.17688 65.7216 7.29595 65.681 7.42162C65.6197 7.60683 65.6469 7.81189 65.6334 8.0037C65.613 8.33444 65.4907 8.65855 65.3687 8.96943C65.2601 9.24063 65.1515 9.51843 65.0497 9.78963C65.0292 9.84917 65.0021 9.9153 64.9545 9.95501C64.9002 10.0013 64.8325 10.0211 64.7578 10.0278C64.045 10.1402 63.3529 9.74335 62.6401 9.67058C62.6469 9.7764 62.7283 9.86239 62.8097 9.92856C63.061 10.1402 63.3731 10.2593 63.6582 10.418C63.9434 10.5768 64.2216 10.795 64.3167 11.1059C64.364 11.2514 64.3844 11.4367 64.5339 11.4896C64.5745 11.5028 64.622 11.5028 64.6696 11.5028C64.8121 11.4962 64.9615 11.483 65.0972 11.4301C65.3007 11.3507 65.4636 11.1787 65.552 10.9802C65.6401 10.7818 65.674 10.5635 65.6673 10.3519C65.6606 10.1997 65.6401 10.0542 65.6536 9.90208C65.6606 9.74995 65.7011 9.59782 65.7554 9.45229C65.8369 9.20095 65.9455 8.9562 66.0677 8.71809C66.122 8.61887 66.1763 8.51965 66.2645 8.44026C66.3596 8.34767 66.4886 8.28813 66.5972 8.20877C66.8821 8.01693 67.0791 7.71268 67.1944 7.40179C67.3097 7.09751 67.364 6.76678 67.432 6.44929C67.4796 6.16487 67.181 6.07225 67.0178 6.31037Z" fill="black"/>
<path d="M64.8734 11.5359C64.6428 11.5623 64.3985 11.4763 64.1337 11.3771C63.2581 11.0332 62.4166 10.5768 61.6019 10.1137C61.2557 9.91529 60.9028 9.71026 60.5771 9.47214C59.749 8.88343 58.9277 8.29475 58.059 7.75895C57.7808 7.58699 57.5024 7.41501 57.2038 7.27608C56.8643 7.11736 56.4708 7.04459 56.1448 6.85276C55.8666 6.694 55.6495 6.38975 55.568 6.08546C55.4866 5.78781 55.5613 5.50338 55.7376 5.25204C55.8871 5.03375 56.0905 4.83531 56.308 4.67658C56.6947 4.39216 57.1699 4.28631 57.6247 4.46489C58.8666 4.94776 61.5409 6.50219 61.7309 6.62126C61.9209 6.74031 64.1609 8.3278 64.8804 8.98265C65.3757 9.43243 65.8713 10.0145 65.6404 10.7024C65.5794 10.881 65.5047 11.0596 65.3894 11.2118C65.2333 11.4234 65.0567 11.516 64.8734 11.5359Z" stroke="#5C0F0E" stroke-width="1.5" stroke-miterlimit="10"/>
<path d="M66.1355 8.61877C66.1355 8.61877 66.4204 8.30788 66.0742 7.13049" stroke="#5C0F0E" stroke-width="1.5" stroke-miterlimit="10"/>
<path d="M66.2983 8.41372C66.2983 8.41372 67.3844 7.98376 67.425 6.17798" stroke="#5C0F0E" stroke-width="1.5" stroke-miterlimit="10"/>
</svg>
