<svg width="15" height="20" viewBox="0 0 15 20" fill="none" xmlns="http://www.w3.org/2000/svg">
<path d="M7.47712 0.138051C7.51816 0.242832 7.4472 0.338705 7.38907 0.41973C6.97745 0.998783 6.65385 1.64631 6.52476 2.34245C6.47429 2.48532 6.48544 2.59177 6.52476 2.60364C7.32364 2.53407 8.2247 2.54208 9.01118 2.70879C10.4422 2.99471 11.7797 3.71333 12.8077 4.74078C13.8326 5.75762 14.552 7.07523 14.8431 8.4849C15.1658 10.0112 14.9854 11.636 14.34 13.0575C12.9714 15.9604 10.6641 18.4158 7.84087 19.9722C7.74983 20.0142 7.6186 20.0159 7.5562 19.926C7.48268 19.8318 7.51303 19.6977 7.58569 19.612C7.96653 19.0847 8.2324 18.4785 8.37687 17.8465C8.40466 17.7154 8.4427 17.5826 8.43116 17.4477C8.38456 17.3875 8.30763 17.4057 8.24223 17.4078C6.87187 17.544 5.46177 17.3009 4.22349 16.7002C2.89716 16.066 1.77173 15.0293 1.02756 13.7689C0.338112 12.6095 -0.0243524 11.2593 0.000866232 9.91238C0.00556801 8.67622 0.345378 7.45024 0.943787 6.36807C2.3368 3.71376 4.52398 1.4739 7.16467 0.0269072C7.27537 -0.0341797 7.43908 0.0112113 7.47712 0.138051ZM7.08773 7.1202C6.27261 7.2288 5.52075 7.70392 5.06425 8.38097C4.75522 8.8459 4.568 9.39823 4.57185 9.95735C4.54877 10.7065 4.84968 11.4569 5.37115 11.9965C5.8268 12.4835 6.45983 12.8009 7.12363 12.8857C7.79941 12.9744 8.5051 12.8174 9.07744 12.4488C9.65917 12.0822 10.1024 11.5036 10.3008 10.8482C10.673 9.71045 10.2268 8.37757 9.25568 7.67465C8.64573 7.21395 7.846 7.00948 7.08773 7.1202Z" fill="url(#paint0_linear_485_66)"/>
<defs>
<linearGradient id="paint0_linear_485_66" x1="7.49963" y1="0" x2="7.49963" y2="20" gradientUnits="userSpaceOnUse">
<stop stop-color="#FF9900"/>
<stop offset="1" stop-color="#F05A22"/>
</linearGradient>
</defs>
</svg>
