<svg width="20" height="20" viewBox="0 0 20 20" fill="none" xmlns="http://www.w3.org/2000/svg">
<path d="M15.6772 12.9771L14.9916 8.7251L12.4716 12.9435H11.9929C11.7057 12.4553 11.5941 11.7467 11.5941 11.3058C11.5941 10.5816 11.642 9.87267 11.642 8.94383C11.642 7.71541 11.2753 7.06898 10.3021 6.83462V6.80298C12.3592 6.51941 13.3004 5.16522 13.3004 3.27553C13.3004 0.582767 11.4806 0 9.10694 0H2.71074L-0.000366211 12.6619H3.39673L4.38575 8.0482H6.65061C7.86275 8.0482 8.35726 8.63097 8.35726 9.74885C8.35726 10.5992 8.26153 11.2765 8.26153 11.9217C8.26153 12.1561 8.30939 12.7248 8.48465 12.9451L10.9406 15.5117L8.81933 20L13.3491 17.3389L16.7303 19.9055L16.108 15.6695L19.9996 12.9767L15.6772 12.9771ZM7.67088 5.68627H4.95938L5.61332 2.63143H8.13335C9.02663 2.63143 9.96739 2.86579 9.96739 3.93836C9.96739 5.30818 8.89885 5.68627 7.67088 5.68627Z" fill="#FCAF17"/>
</svg>
