<svg width="20" height="20" viewBox="0 0 20 20" fill="none" xmlns="http://www.w3.org/2000/svg">
<path d="M0.406837 12.8764C1.64308 16.9974 5.46724 20 9.99322 20C15.5195 20 19.9996 15.5227 19.9996 10C19.9996 4.47716 15.5195 0 9.99322 0C4.69017 0 0.351008 4.12266 0.00830078 9.33564C0.00830078 10.8334 0.00830078 11.4584 0.406837 12.8764Z" fill="url(#paint0_linear_485_58)"/>
<path d="M9.47902 7.54497L7.03045 11.0997C6.45323 11.0735 5.87216 11.2368 5.38982 11.5538L0.0130835 9.34176C0.0130835 9.34176 -0.111331 11.3873 0.407155 12.9117L4.20821 14.4791C4.39906 15.3315 4.98415 16.0791 5.84738 16.4388C7.25966 17.0285 8.88809 16.3563 9.47559 14.9443C9.62852 14.5752 9.6998 14.1881 9.68945 13.8018L13.2789 11.3014C15.3755 11.3014 17.0796 9.59326 17.0796 7.49554C17.0796 5.39771 15.3755 3.6911 13.2789 3.6911C11.2538 3.6911 9.36552 5.45809 9.47902 7.54497ZM8.89066 14.6988C8.43595 15.7898 7.18145 16.3074 6.09095 15.8533C5.58789 15.6439 5.20808 15.2602 4.98896 14.8027L6.22623 15.3151C7.03045 15.6499 7.95309 15.2688 8.28738 14.4653C8.62273 13.661 8.2423 12.7375 7.43852 12.4027L6.15952 11.873C6.65302 11.686 7.21409 11.6791 7.7383 11.8971C8.26673 12.1168 8.6768 12.5306 8.89409 13.0593C9.11145 13.5881 9.11059 14.1718 8.89066 14.6988ZM13.2789 10.031C11.8832 10.031 10.7468 8.89369 10.7468 7.49554C10.7468 6.09854 11.8832 4.96089 13.2789 4.96089C14.6755 4.96089 15.8118 6.09854 15.8118 7.49554C15.8118 8.89369 14.6755 10.031 13.2789 10.031ZM11.3815 7.49169C11.3815 6.43997 12.2336 5.58689 13.2832 5.58689C14.3337 5.58689 15.1857 6.43997 15.1857 7.49169C15.1857 8.54354 14.3337 9.39583 13.2832 9.39583C12.2336 9.39583 11.3815 8.54354 11.3815 7.49169Z" fill="white"/>
<defs>
<linearGradient id="paint0_linear_485_58" x1="10.0039" y1="0" x2="10.0039" y2="20" gradientUnits="userSpaceOnUse">
<stop stop-color="#111D2E"/>
<stop offset="0.7376" stop-color="#144B7E"/>
<stop offset="0.87279" stop-color="#136497"/>
<stop offset="1" stop-color="#1387B8"/>
</linearGradient>
</defs>
</svg>
