<svg width="54" height="56" viewBox="0 0 54 56" fill="none" xmlns="http://www.w3.org/2000/svg">
<path d="M47.8115 37.8764C43.8741 46.7274 35.8587 51.3637 27.2807 51.2232C10.8279 50.3803 6.04675 31.4137 17.0153 24.5295L17.4372 25.0915C5.48427 40.5457 28.9682 55.438 39.7961 37.5954C48.6553 19.0502 26.5776 0.786102 7.45298 14.8354L7.03111 14.414C12.0935 6.40584 21.9371 2.8935 31.2181 5.28189C34.6152 6.07081 37.7984 7.59281 40.5443 9.74111C43.2903 11.8894 45.5324 14.612 47.1136 17.7178C48.6947 20.8236 49.5765 24.2375 49.6971 27.7198C49.8176 31.2022 49.1741 34.6688 47.8115 37.8764V37.8764ZM32.3431 37.5954C31.6335 38.6378 30.6659 39.479 29.5345 40.0372C28.4031 40.5954 27.1464 40.8516 25.8865 40.7809C24.6267 40.7102 23.4066 40.315 22.3449 39.6337C21.2832 38.9524 20.416 38.0082 19.8277 36.8929C17.1559 31.2732 20.9527 26.2154 25.7339 26.0749C31.64 25.7939 34.0306 32.3971 30.3744 36.1904L32.3431 37.5954ZM6.60924 36.8929L5.90613 37.1739C-0.421867 12.8685 30.7963 6.54633 36.9836 25.7939L36.4211 26.0749C27.1401 12.8685 5.76551 17.5048 6.60924 36.8929ZM53.9989 27.9013C53.9233 21.5897 51.7334 15.4854 47.7788 10.5629C43.8241 5.64037 38.3328 2.18347 32.1814 0.744072C26.0301 -0.695321 19.5734 -0.0342133 13.8421 2.62185C8.11087 5.27792 3.43552 9.7758 0.562489 15.3974L2.67182 16.9428C0.843733 21.0171 0 24.951 0 29.0253C0.843733 47.0084 14.0622 56 27.2807 56C40.4992 55.8595 54.1395 45.463 53.9989 27.9013Z" fill="#0070FF"/>
</svg>
