<svg width="41" height="56" viewBox="0 0 41 56" fill="none" xmlns="http://www.w3.org/2000/svg">
<path d="M36 11.7735L32.3568 7.97346L28.4451 4H12.4535L8.64322 7.97346L5 11.7735H16.6584V46.0969L20.5003 50L24.3416 46.0969V11.7735H24.3423H36Z" fill="white"/>
<path d="M33.0913 16H29.3087V30.932L25.3566 34.7245L28.1396 37.3486L30.9503 40L36.9986 34.1914L37 16H33.0913ZM12.6922 30.932V16H5V34.1914L11.0506 40L13.8614 37.3486L16.6427 34.7245L12.6922 30.932Z" fill="white"/>
<path d="M11.7334 2.07444L2.07994 11.7069V35.0558L20.5005 53.1019L38.9203 35.0558V11.7076L29.2673 2.07444H11.7334ZM0.308227 10.545L10.5754 0.305326L10.8791 0H30.1203L30.4239 0.305326L40.6918 10.545L41 10.8532V35.918L40.688 36.2229L21.2271 55.2887L20.5005 56L19.773 55.2887L0.312867 36.223L0 35.9181V10.8533L0.308227 10.545Z" fill="white"/>
</svg>
